<svg xmlns="http://www.w3.org/2000/svg" viewBox="0 0 25.87 23"><defs><style>.a{fill:#010101;}</style></defs><title>RNP_silhouette</title><path class="a" d="M433.12,298.93a4.54,4.54,0,0,0-1-.26l-1-.22c1-.24,2.07-.23,3.08-.43a2.13,2.13,0,0,0-.88-.37c-.78-.16-1.57-.28-2.35-.45a16.31,16.31,0,0,1-5.44-2,10.27,10.27,0,0,0-1.91-.94l-1.76-.67a11.37,11.37,0,0,0-4.44-1.08.56.56,0,0,1-.43-.25,1.27,1.27,0,0,1-.32-1c.06-.3.11-.6.17-.91a1.87,1.87,0,0,0-.08-1.19,4.73,4.73,0,0,0-.57-1,2.3,2.3,0,0,0-2.15-.87,1.76,1.76,0,0,0-1.56,1.31.9.9,0,0,0-.08.21,1.91,1.91,0,0,1-1.1,1.46,22.83,22.83,0,0,0-3,1.79,24.49,24.49,0,0,0,3.1-1.59,4.18,4.18,0,0,1,1.32-.2,1.6,1.6,0,0,1,1.15.55c.21.29,0,.61-.11.92a2.76,2.76,0,0,1-.08.27,6.38,6.38,0,0,0-.07,3.07,11.24,11.24,0,0,0,1,2.39,3.16,3.16,0,0,0,.77,1c.95.83,1.93,1.64,2.93,2.42a2.46,2.46,0,0,0,1.59.63.92.92,0,0,1,.85.58,4.59,4.59,0,0,1,.34,1.27,3.09,3.09,0,0,1-.12,1.6c-.2.58-.45,1.15-.66,1.72-.1.27-.24.3-.46.16a.56.56,0,0,0-.36-.1.22.22,0,0,0-.33.08h.24c.2.1.26.37.53.39-.48.19-1-.07-1.43.27a2.74,2.74,0,0,0,1.2.17c.07,0,.19,0,.2.08s-.08.17-.18.19l-.28.06a.31.31,0,0,0-.26.29,1.8,1.8,0,0,1,.27-.07c.09,0,.23-.1.27,0s-.05.23-.18.28a.9.9,0,0,1-.56.05c-.34-.09-.68-.17-1-.23-.1,0-.27-.09-.31,0s.13.18.22.23a3.24,3.24,0,0,0,.52.19c0,.17-.14.14-.24.15s-.19,0-.27,0a4.62,4.62,0,0,1-.83,0,1,1,0,0,0-.82.26,8,8,0,0,0,2.44.15c-.31.39-1,.3-1.08.89a2.29,2.29,0,0,0,1.07-.26c.36-.26.74-.47,1.11-.69.17-.1.33-.2.37-.41s.05-.18.14-.09.53.15.77.33c.06-.21-.06-.28-.19-.34a1.19,1.19,0,0,1-.42-.28.37.37,0,0,1-.08-.33c0-.11.17-.07.26-.06a1.58,1.58,0,0,0,1.44-.65c0-.07.1-.05.16,0l.31.09c0,.07,0,.17.12.21a.26.26,0,0,0,0-.35c-.39-.34-.33-.7-.13-1.13.38-.87.77-1.74,1.23-2.56a1.68,1.68,0,0,0,.19-.76,2.09,2.09,0,0,0-.36-1c-.1-.21-.09-.32.19-.34a5.88,5.88,0,0,0,2.61-.79,1.72,1.72,0,0,1,.66-.22,7,7,0,0,0,2.13-.66,3.76,3.76,0,0,1,1.31-.36c.84-.1,1.68-.17,2.52-.22.13,0,.36,0,.38-.13S433.25,299,433.12,298.93Zm-19.48-9.82a.25.25,0,0,1-.26-.29.26.26,0,0,1,.29-.27.28.28,0,0,1,.27.3A.27.27,0,0,1,413.64,289.11Zm7,18.65a.08.08,0,0,1,0-.13c.14-.12.29-.07.45,0C421,307.71,420.85,307.82,420.68,307.76Zm2.64-4.9a3,3,0,0,1-.32,1.4c-.35.78-.68,1.58-1.08,2.35a1,1,0,0,1-1,.39c-.1,0-.09-.11-.09-.18a1.1,1.1,0,0,1,.1-.47l.78-2a1.35,1.35,0,0,1,.19-.33c.33-.4.35-.67,0-1a2.69,2.69,0,0,1-.57-1c-.11-.3,0-.41.28-.36a5.73,5.73,0,0,0,1.24.06.34.34,0,0,1,.4.28A2.7,2.7,0,0,1,423.32,302.86Z" transform="translate(-408.39 -287.24)"/></svg>